<?xml version="1.0" encoding="UTF-8"?>
<svg id="Layer_2" data-name="Layer 2" xmlns="http://www.w3.org/2000/svg" viewBox="0 0 229.19 181.57">
  <defs>
    <style>
      .cls-1 {
        fill: #fff;
      }
    </style>
  </defs>
  <g id="_레이어_1" data-name="레이어 1">
    <g>
      <path class="cls-1" d="M47.39,32.99v5.31c0,25.74-12.36,37.38-27.68,37.38-7.35,0-13.69-2.14-17.67-4.8l2.86-7.76c2.86,2.14,8.99,4.49,13.89,4.49,10.21,0,18.28-5.72,19.2-26.45-3.47,3.78-9.81,7.25-17.06,7.25C9.81,48.41,0,39.53,0,25.13S8.99,0,23.19,0c15.42,0,24.21,11.13,24.21,32.99ZM9.5,24.51c0,10.21,6.23,16.04,13.89,16.04,5.72,0,11.95-4.39,14.5-8.99v-1.94c0-11.75-4.19-21.76-14.61-21.76-8.38,0-13.79,7.05-13.79,16.65Z"/>
      <path class="cls-1" d="M52.29,69.66h10.42v10.01h-10.42v-10.01Z"/>
      <path class="cls-1" d="M87.02,12.26l-12.05,2.96v-6.13L91.41.82h4.8v74.66h-9.19V12.26Z"/>
      <path class="cls-1" d="M121.74,84.81c-4.26-5.09-7.82-12.3-7.82-21.65v-.88c0-9.34,3.56-16.51,7.82-21.65h2.08c-4.02,5.23-7.22,12.72-7.22,21.28v1.3c0,8.47,3.19,16.33,7.22,21.6h-2.08Z"/>
      <path class="cls-1" d="M151.02,69.96c-8.88,1.16-18.69,1.57-28.4,1.62l-.28-2.31c4.16,0,8.37-.05,12.63-.23v-4.81c-4.35-.51-7.96-3.52-7.96-7.73,0-2.54,1.62-4.9,4.26-6.24h-7.91v-2.36h25.03v2.36h-7.4c2.59,1.34,4.21,3.65,4.21,6.2,0,4.26-3.65,7.26-7.77,7.77v4.72c4.35-.23,8.79-.6,13.32-1.16l.28,2.17ZM136.22,61.87c3.7,0,6.57-2.54,6.57-5.37,0-2.59-2.87-5.37-6.57-5.37s-6.61,2.78-6.61,5.37c0,2.82,2.82,5.37,6.61,5.37ZM130.34,43.59v-2.36h11.52v2.36h-11.52ZM156.94,57.56v21.32h-2.41v-38.53h2.41v14.85h6.94v2.36h-6.94Z"/>
      <path class="cls-1" d="M161.8,84.81c4.16-5.23,7.17-12.72,7.17-21.32v-1.3c0-8.42-3.01-16.33-7.17-21.56h2.27c4.16,5.09,7.73,12.3,7.73,21.6v.93c0,9.39-3.56,16.56-7.73,21.65h-2.27Z"/>
      <path class="cls-1" d="M35.34,135.68c4.7,0,7.35-4.29,8.17-10.32l4.09,1.12c-1.33,9.6-7.35,14.09-12.67,14.09-4.29,0-8.07-1.63-11.85-5.92-4.09-4.6-6.13-6.23-10.21-6.23-4.39,0-6.33,4.19-8.17,11.03l-4.09-1.23c2.35-10.93,7.15-14.81,13.28-15.01,3.68-.1,7.86,2.66,10.72,5.92,3.57,3.98,6.54,6.54,10.72,6.54Z"/>
      <path class="cls-1" d="M97.03,129.75v5.31c0,25.74-12.36,37.38-27.68,37.38-7.35,0-13.69-2.14-17.67-4.8l2.86-7.76c2.86,2.14,8.99,4.49,13.89,4.49,10.21,0,18.28-5.72,19.2-26.45-3.47,3.78-9.81,7.25-17.06,7.25-11.13,0-20.94-8.89-20.94-23.29s8.99-25.13,23.19-25.13c15.42,0,24.21,11.13,24.21,32.99ZM59.14,121.28c0,10.21,6.23,16.04,13.89,16.04,5.72,0,11.95-4.39,14.5-8.99v-1.94c0-11.75-4.19-21.76-14.61-21.76-8.38,0-13.79,7.05-13.79,16.65Z"/>
      <path class="cls-1" d="M101.93,166.42h10.42v10.01h-10.42v-10.01Z"/>
      <path class="cls-1" d="M118.99,166.42l3.06-7.86c3.68,2.76,10.32,5.41,15.93,5.41,9.91,0,16.44-5.82,16.44-15.63,0-10.52-7.25-14.61-16.95-14.61-4.09,0-11.13,1.84-15.01,4.09l2.45-39.63h36.36v8.48h-28.39l-1.43,20.63c2.86-1.02,6.84-1.63,9.81-1.63,12.87,0,22.88,7.15,22.88,22.78,0,13.28-10.11,24.21-25.02,24.21-8.48,0-15.73-2.96-20.12-6.23Z"/>
      <path class="cls-1" d="M179.14,181.57c-4.26-5.09-7.82-12.3-7.82-21.65v-.88c0-9.34,3.56-16.51,7.82-21.65h2.08c-4.02,5.23-7.22,12.72-7.22,21.28v1.3c0,8.47,3.19,16.33,7.22,21.6h-2.08Z"/>
      <path class="cls-1" d="M180.71,170.47v-2.31h18.27v-8.65h-11.84v-20.45h26.09v2.31h-23.68v6.62h23.31v2.36h-23.31v6.75h24.05v2.41h-12.12v8.65h18.18v2.31h-38.95Z"/>
      <path class="cls-1" d="M219.2,181.57c4.16-5.23,7.17-12.72,7.17-21.32v-1.3c0-8.42-3.01-16.33-7.17-21.56h2.27c4.16,5.09,7.73,12.3,7.73,21.6v.93c0,9.39-3.56,16.56-7.73,21.65h-2.27Z"/>
    </g>
  </g>
</svg>